<svg width="64" height="64" viewBox="0 0 128 128" fill="none" xmlns="http://www.w3.org/2000/svg">
  <defs>
    <linearGradient id="favBg" x1="16" y1="12" x2="110" y2="118" gradientUnits="userSpaceOnUse">
      <stop stop-color="#101828"/>
      <stop offset="1" stop-color="#233A68"/>
    </linearGradient>
    <linearGradient id="favAccent" x1="32" y1="30" x2="96" y2="98" gradientUnits="userSpaceOnUse">
      <stop stop-color="#6D79FF"/>
      <stop offset="1" stop-color="#39A0FF"/>
    </linearGradient>
  </defs>
  <rect x="6" y="6" width="116" height="116" rx="28" fill="url(#favBg)"/>
  <path d="M33 89L54 39C56.7 32.6 65.9 32.3 68.9 38.6L79.8 61.5C80.7 63.4 83.3 63.6 84.4 61.8L91.4 49.7C94.4 44.5 102.4 46.6 102.4 52.6V89H88.2V70.8C88.2 68.5 85.2 67.7 84 69.7L74.3 85.6C71.9 89.5 66.2 89.2 64.2 85.1L56.8 69.8C55.7 67.4 52.2 67.6 51.4 70.1L45.5 89H33Z" fill="url(#favAccent)"/>
  <path d="M39.5 89L58.5 44.7C60 41.3 64.8 41.1 66.5 44.4L74.7 61.1" stroke="white" stroke-width="8" stroke-linecap="round" stroke-linejoin="round"/>
</svg>
